<svg xmlns="http://www.w3.org/2000/svg" width="12.972" height="15.936" viewBox="0 0 12.972 15.936">
  <path id="Path_2" data-name="Path 2" d="M13.073,17.521a3.61,3.61,0,0,0-1.725,3.036,3.513,3.513,0,0,0,2.138,3.222,8.394,8.394,0,0,1-1.095,2.262C11.71,27.023,11,28,9.913,28s-1.363-.63-2.613-.63c-1.219,0-1.653.651-2.644.651S2.972,27.116,2.177,26A9.784,9.784,0,0,1,.514,20.723c0-3.1,2.014-4.741,4-4.741,1.054,0,1.931.692,2.592.692.63,0,1.611-.733,2.809-.733a3.758,3.758,0,0,1,3.161,1.58ZM9.344,14.63a3.562,3.562,0,0,0,.847-2.22,1.529,1.529,0,0,0-.031-.32A3.569,3.569,0,0,0,7.816,13.3a3.463,3.463,0,0,0-.878,2.159,1.42,1.42,0,0,0,.031.289,1.189,1.189,0,0,0,.217.021A3.094,3.094,0,0,0,9.344,14.63Z" transform="translate(-0.514 -12.089)" fill="#fff"/>
</svg>
